<svg width="55" height="50" viewBox="0 0 55 50" fill="none" xmlns="http://www.w3.org/2000/svg">
<mask id="mask0_109_6" style="mask-type:alpha" maskUnits="userSpaceOnUse" x="0" y="0" width="55" height="34">
<path d="M0 0H54.2492V33.0258H0V0Z" fill="white"/>
</mask>
<g mask="url(#mask0_109_6)">
<path d="M0.821132 10.9191C0.346266 11.124 0.0395813 11.5876 0.0395813 12.1063V31.4655C0.0395813 32.2414 0.669909 32.8732 1.44581 32.8732C2.2217 32.8732 2.85203 32.2414 2.85203 31.4655V12.5811L26.6392 22.1703C27.4688 22.5081 28.4015 22.4954 29.2184 22.135L53.8959 11.4067C54.2323 11.2625 54.2252 10.7877 53.8832 10.6492L28.2871 0.330708C27.4688 -2.15322e-06 26.5501 0.00565076 25.7318 0.354734L0.821132 10.9191ZM46.609 11.5098L29.176 19.0823C28.3535 19.437 27.4278 19.4497 26.5982 19.119L7.9201 11.5876C7.7392 11.5155 7.73354 11.2569 7.91445 11.1791L25.7615 3.42582C26.5855 3.06967 27.5112 3.05836 28.3408 3.38907L46.592 10.7453C46.934 10.8838 46.9397 11.3586 46.609 11.5098Z" fill="white"/>
</g>
<path d="M37.7914 28.2743C35.0072 28.2743 32.7417 30.5441 32.7417 33.3311C32.7417 36.1181 35.0072 38.3878 37.7914 38.3878C40.5742 38.3878 42.8397 36.1181 42.8397 33.3311C42.8397 30.5441 40.5798 28.2743 37.7914 28.2743ZM37.7914 35.5768C36.559 35.5768 35.5485 34.5705 35.5485 33.3311C35.5485 32.0916 36.559 31.0924 37.7914 31.0924C39.0224 31.0924 40.0329 32.0973 40.0329 33.3367C40.0329 34.5776 39.0294 35.5768 37.7914 35.5768Z" fill="white"/>
<path d="M17.1475 28.2743C14.3647 28.2743 12.0978 30.5441 12.0978 33.3311C12.0978 36.1181 14.3647 38.3878 17.1475 38.3878C19.9302 38.3878 22.1972 36.1181 22.1972 33.3311C22.1972 30.5441 19.9302 28.2743 17.1475 28.2743ZM17.1475 35.5768C15.9151 35.5768 14.906 34.5705 14.906 33.3311C14.906 32.0916 15.9094 31.0854 17.1475 31.0854C18.3799 31.0854 19.3904 32.0916 19.3904 33.3311C19.3904 34.5705 18.3799 35.5768 17.1475 35.5768Z" fill="white"/>
<mask id="mask1_109_6" style="mask-type:alpha" maskUnits="userSpaceOnUse" x="4" y="21" width="47" height="29">
<path d="M4.68219 21.0863H50.2693V49.1147H4.68219V21.0863Z" fill="white"/>
</mask>
<g mask="url(#mask1_109_6)">
<path d="M38.8189 21.3817C34.0038 21.0453 29.6508 23.5737 27.4687 27.5521C25.2936 23.5737 20.9534 21.0453 16.1313 21.3817C10.235 21.7915 5.35916 26.7522 5.04116 32.6682C4.69208 39.1524 9.5849 44.7378 16.0111 45.2621C16.1313 45.2988 16.2641 45.3158 16.3956 45.3158H21.9201C22.6847 45.3158 23.4055 45.6112 23.9411 46.1525L26.4836 48.6992C26.7479 48.9649 27.1027 49.1147 27.4758 49.1147C27.8475 49.1147 28.2093 48.9649 28.4665 48.6992L31.0104 46.1525C31.5503 45.6112 32.2668 45.3158 33.03 45.3158H38.8302C39.1015 45.3158 40.1177 45.1123 40.1177 45.1123C46.0931 44.0226 50.3485 38.5504 49.8849 32.4167C49.4468 26.5346 44.6854 21.7915 38.8189 21.3817ZM38.8429 42.4991C38.7171 42.5104 38.9503 42.4511 38.8429 42.4991H33.03C31.5263 42.4991 30.0847 43.0955 29.0205 44.1611L27.6496 45.5334C27.5535 45.6295 27.391 45.6295 27.2949 45.5334L25.9296 44.1668C24.8668 43.1012 23.4239 42.4991 21.9145 42.4991H16.6853C16.6189 42.4864 16.5468 42.4751 16.4747 42.4694C11.4434 42.1854 7.57802 37.8579 7.84796 32.8195C8.09388 28.2927 11.8221 24.5065 16.3305 24.1927C21.2347 23.8564 25.5099 27.3952 26.0681 32.2655C26.1289 32.8011 26.4469 33.2887 26.9528 33.4752C27.8786 33.813 28.7732 33.1982 28.8693 32.3135C29.4106 27.4136 33.6971 23.8507 38.621 24.1927C43.111 24.5065 46.7474 28.1302 47.0838 32.6202C47.4456 37.4607 43.6283 41.849 38.8429 42.4991Z" fill="white"/>
</g>
</svg>
